<?xml version="1.0" encoding="UTF-8" standalone="no"?><!-- Generator: Gravit.io --><svg xmlns="http://www.w3.org/2000/svg" xmlns:xlink="http://www.w3.org/1999/xlink" style="isolation:isolate" viewBox="514.845 538.866 95.996 96.153" width="95.996pt" height="96.153pt"><path d=" M 539.894 538.866 C 532.48 538.866 526.432 544.914 526.432 552.328 C 526.432 559.741 532.48 565.789 539.894 565.789 C 547.307 565.789 553.355 559.741 553.355 552.328 C 553.355 544.914 547.307 538.866 539.894 538.866 Z  M 586.047 538.866 C 581.61 538.868 577.455 541.046 574.93 544.695 C 574.847 544.733 574.765 544.772 574.69 544.816 C 572.555 545.732 569.761 547.137 567.417 549.805 C 565.074 552.47 563.278 556.37 562.97 561.824 C 562.94 562.353 563.129 562.872 563.493 563.258 C 563.857 563.645 564.363 563.864 564.893 563.866 L 572.586 563.866 C 573.643 563.866 574.509 563.001 574.509 561.943 C 574.509 560.997 574.532 560.193 574.568 559.358 C 577.019 563.349 581.364 565.783 586.047 565.789 C 590.73 565.783 595.075 563.349 597.526 559.358 C 597.564 560.193 597.586 560.997 597.586 561.943 C 597.586 563.001 598.451 563.866 599.509 563.866 L 607.201 563.866 C 607.733 563.867 608.241 563.648 608.605 563.261 C 608.97 562.873 609.157 562.353 609.124 561.822 C 608.816 556.37 607.02 552.47 604.676 549.803 C 602.334 547.137 599.539 545.732 597.407 544.816 C 597.327 544.792 597.246 544.772 597.164 544.757 C 594.658 541.078 590.498 538.874 586.047 538.866 Z  M 539.894 542.712 C 545.226 542.712 549.509 546.995 549.509 552.328 C 549.509 557.66 545.226 561.943 539.894 561.943 C 534.561 561.943 530.278 557.66 530.278 552.328 C 530.278 546.995 534.561 542.712 539.894 542.712 Z  M 586.047 542.712 C 591.38 542.712 595.663 546.995 595.663 552.328 C 595.663 557.66 591.38 561.943 586.047 561.943 C 580.715 561.943 576.432 557.66 576.432 552.328 C 576.432 546.995 580.715 542.712 586.047 542.712 Z  M 571.743 551.126 C 571.242 553.274 570.903 556.158 570.782 560.02 L 567.24 560.02 C 567.78 556.603 568.824 554.018 570.303 552.328 C 570.74 551.831 571.272 551.524 571.745 551.126 L 571.743 551.126 Z  M 600.349 551.126 C 600.824 551.524 601.357 551.831 601.791 552.328 C 603.272 554.018 604.316 556.603 604.857 560.02 L 601.312 560.02 C 601.191 556.158 600.853 553.274 600.351 551.126 L 600.349 551.126 Z  M 532.984 567.531 C 527.303 567.531 522.105 571.318 520.723 576.847 L 514.953 599.324 L 514.953 599.443 C 514.403 602.218 515.998 604.971 518.68 605.874 C 518.755 605.895 518.838 605.918 518.921 605.933 C 521.632 606.474 524.651 604.972 525.351 602.087 L 525.409 602.087 L 526.432 598.3 L 526.432 607.737 C 526.417 607.856 526.417 607.977 526.432 608.097 L 526.432 629.25 C 526.432 632.414 529.038 635.02 532.201 635.02 C 535.365 635.02 537.971 632.414 537.971 629.25 L 537.971 610.02 L 541.817 610.02 L 541.817 629.25 C 541.817 632.414 544.422 635.02 547.586 635.02 C 550.749 635.02 553.355 632.414 553.355 629.25 L 553.355 608.397 C 553.363 608.3 553.363 608.195 553.355 608.097 L 553.355 598.843 L 554.197 602.027 C 554.786 604.468 556.975 606.185 559.486 606.174 C 559.68 606.174 560.551 606.489 561.649 605.393 L 561.528 605.272 C 561.913 605.099 562.278 604.852 562.611 604.612 C 563.18 605.168 563.888 605.625 564.713 605.874 C 565.224 606.024 565.751 606.104 566.276 606.114 L 565.795 607.435 C 565.581 608.024 565.667 608.681 566.026 609.195 C 566.384 609.709 566.971 610.017 567.597 610.02 L 576.432 610.02 L 576.432 629.25 C 576.432 632.414 579.038 635.02 582.201 635.02 C 583.674 635.02 585.026 634.443 586.047 633.518 C 587.068 634.441 588.42 635.02 589.893 635.02 C 593.057 635.02 595.663 632.414 595.663 629.25 L 595.663 610.02 L 604.497 610.02 C 605.126 610.021 605.715 609.714 606.074 609.199 C 606.434 608.683 606.518 608.024 606.299 607.435 L 605.818 606.174 C 606.195 606.135 606.676 606.008 607.201 605.812 L 607.201 605.874 C 607.278 605.85 607.307 605.775 607.382 605.752 C 607.426 605.731 607.457 605.775 607.501 605.752 L 607.501 605.693 C 610.274 604.641 611.414 601.577 610.566 599.022 L 610.566 598.962 L 601.672 575.704 C 599.839 570.881 595.099 567.712 589.893 567.712 L 582.02 567.712 C 576.815 567.712 572.015 570.881 570.182 575.704 L 563.27 593.914 L 558.884 576.847 C 557.518 571.362 552.461 567.531 546.624 567.531 L 532.984 567.531 Z  M 532.984 571.378 L 546.624 571.378 C 550.786 571.378 554.22 574.06 555.159 577.808 L 560.928 600.285 L 560.928 600.404 C 561.197 601.314 560.763 601.974 559.905 602.147 C 559.759 602.191 559.619 602.252 559.486 602.327 C 558.907 602.327 558.072 601.65 557.922 601.066 L 553.295 583.397 C 553.293 582.653 552.862 581.977 552.189 581.661 C 551.515 581.345 550.72 581.446 550.147 581.92 C 549.574 582.395 549.325 583.157 549.509 583.877 L 549.509 592.712 L 530.278 592.712 L 530.278 583.877 C 530.315 582.894 529.6 582.043 528.624 581.91 C 527.653 581.769 526.732 582.385 526.492 583.337 L 521.684 601.066 L 521.684 601.185 C 521.526 601.981 520.821 602.304 519.821 602.147 C 519.04 601.831 518.53 601.177 518.68 600.285 C 518.68 600.262 518.673 600.247 518.68 600.224 L 524.449 577.808 C 525.373 574.104 529.046 571.378 532.982 571.378 L 532.984 571.378 Z  M 582.022 571.558 L 589.893 571.558 C 593.538 571.558 596.826 573.766 598.066 577.028 L 606.901 600.224 C 607.162 601.02 606.878 601.96 606.059 602.208 C 605.955 602.237 605.857 602.283 605.759 602.327 C 605.836 602.289 605.841 602.327 605.459 602.327 C 605.045 602.327 604.324 601.854 604.016 601.245 C 604.001 601.216 603.97 601.216 603.955 601.187 L 603.595 600.283 C 603.58 600.225 603.557 600.164 603.536 600.104 L 597.464 584.299 C 597.274 583.82 596.901 583.437 596.428 583.234 C 595.954 583.03 595.419 583.024 594.941 583.216 C 593.941 583.616 593.461 584.741 593.859 585.741 L 599.93 601.306 C 599.938 601.425 599.959 601.547 599.989 601.666 L 601.732 606.174 L 570.363 606.174 L 572.105 601.666 C 572.157 601.531 572.201 601.389 572.226 601.247 L 578.236 585.741 C 578.428 585.263 578.422 584.727 578.219 584.254 C 578.016 583.78 577.632 583.406 577.153 583.216 C 576.675 583.024 576.139 583.03 575.666 583.233 C 575.192 583.436 574.818 583.819 574.628 584.299 L 568.078 601.247 C 567.651 602.304 566.99 602.545 565.855 602.208 C 564.999 601.952 564.601 601.058 564.893 600.404 L 564.953 600.345 L 573.788 577.028 C 575.028 573.766 578.378 571.558 582.02 571.558 L 582.022 571.558 Z  M 530.278 596.558 L 549.509 596.558 L 549.509 606.174 L 530.278 606.174 L 530.278 596.558 Z  M 530.278 610.02 L 534.124 610.02 L 534.124 629.25 C 534.124 630.318 533.269 631.173 532.201 631.173 C 531.134 631.173 530.278 630.318 530.278 629.25 L 530.278 610.02 Z  M 545.663 610.02 L 549.509 610.02 L 549.509 629.25 C 549.509 630.318 548.653 631.173 547.586 631.173 C 546.519 631.173 545.663 630.318 545.663 629.25 L 545.663 610.02 Z  M 580.278 610.02 L 584.124 610.02 L 584.124 629.25 C 584.124 630.318 583.268 631.173 582.201 631.173 C 581.134 631.173 580.278 630.318 580.278 629.25 L 580.278 610.02 Z  M 587.97 610.02 L 591.816 610.02 L 591.816 629.25 C 591.816 630.318 590.961 631.173 589.893 631.173 C 588.826 631.173 587.97 630.318 587.97 629.25 L 587.97 610.02 Z " fill="rgb(237,184,74)"/></svg>