<?xml version="1.0" encoding="UTF-8" standalone="no"?><!-- Generator: Gravit.io --><svg xmlns="http://www.w3.org/2000/svg" xmlns:xlink="http://www.w3.org/1999/xlink" style="isolation:isolate" viewBox="1060.647 534.853 103.397 100.166" width="103.397pt" height="100.166pt"><path d=" M 1102.652 534.853 C 1099.098 534.853 1094.006 535.97 1090.837 538.097 C 1084.831 538.312 1080.716 542.547 1080.034 549.235 C 1079.63 553.369 1080.002 556.323 1080.26 558.279 C 1080.343 558.961 1080.438 559.73 1080.406 559.959 L 1080.26 560.88 C 1080.002 560.88 1079.763 560.929 1079.566 560.98 C 1076.884 561.687 1075.769 565.582 1076.961 570.044 C 1077.838 573.256 1079.65 575.679 1081.63 576.422 C 1082.681 579.622 1084.161 582.664 1086.029 585.466 L 1071.135 594.1 C 1064.656 597.862 1060.662 604.783 1060.647 612.275 L 1060.647 623.71 C 1060.647 626.373 1062.831 628.557 1065.494 628.557 L 1127.902 628.557 C 1131.72 632.532 1137.096 635.02 1143.042 635.02 C 1154.629 635.02 1164.044 625.604 1164.044 614.017 C 1164.044 605.357 1158.774 597.905 1151.278 594.695 C 1151.265 594.695 1151.265 594.68 1151.265 594.68 C 1150.688 594.197 1150.084 593.748 1149.454 593.336 L 1142.536 588.88 C 1147.845 587.549 1150.994 585.978 1156.149 583.271 C 1156.993 582.833 1157.614 582.061 1157.86 581.143 C 1158.094 580.272 1157.94 579.342 1157.437 578.594 L 1154.674 574.361 C 1153.213 572.13 1152.161 569.658 1151.567 567.058 L 1148.822 555.087 C 1146.753 546.056 1138.933 539.448 1129.713 538.866 C 1128.447 538.044 1126.969 537.607 1125.459 537.606 C 1123.542 537.606 1120.651 537.611 1117.772 538.538 C 1114.026 536.147 1109.455 534.853 1104.268 534.853 L 1102.652 534.853 Z  M 1102.652 538.084 L 1104.268 538.084 C 1114.074 538.084 1121.151 543.096 1124.059 551.943 C 1122.942 551.817 1121.794 551.962 1120.986 552.726 C 1120.372 553.319 1119.792 554.436 1120.537 556.436 C 1121.522 559.15 1121.881 560.753 1121.989 563.011 C 1122.026 563.593 1122.348 564.11 1122.866 564.388 C 1123.384 564.646 1124 564.608 1124.482 564.288 C 1124.753 564.129 1124.879 564.11 1124.918 564.092 C 1125.303 564.242 1126.015 566.192 1125.22 569.204 C 1124.816 570.687 1124.235 571.753 1123.686 572.435 C 1123.156 573.11 1122.652 573.432 1122.411 573.432 C 1121.7 573.432 1121.067 573.899 1120.86 574.593 C 1119.907 577.792 1118.424 581.023 1116.498 583.851 C 1115.9 584.76 1115.254 585.631 1114.543 586.452 C 1111.279 590.344 1107.144 593.014 1102.652 593.014 C 1098.159 593.014 1094.025 590.345 1090.762 586.45 C 1090.053 585.628 1089.4 584.759 1088.807 583.851 C 1086.881 581.023 1085.398 577.792 1084.445 574.593 C 1084.242 573.905 1083.611 573.432 1082.894 573.43 C 1082.407 573.43 1080.892 572.176 1080.084 569.204 C 1079.842 568.352 1079.717 567.471 1079.713 566.585 C 1079.713 565.082 1080.134 564.173 1080.375 564.092 C 1080.394 564.092 1080.52 564.11 1080.822 564.286 C 1081.303 564.609 1081.921 564.648 1082.438 564.388 C 1082.955 564.11 1083.278 563.593 1083.315 563.013 C 1083.348 562.173 1083.441 561.333 1083.587 560.525 C 1083.713 559.83 1083.606 559.055 1083.461 557.875 C 1083.235 556.064 1082.879 553.319 1083.265 549.552 C 1083.764 544.401 1086.805 541.316 1091.375 541.316 C 1091.715 541.316 1092.051 541.203 1092.346 540.992 C 1094.555 539.328 1098.986 538.084 1102.652 538.084 Z  M 1125.459 540.836 C 1126.438 540.836 1127.392 541.151 1128.206 541.757 C 1128.467 541.953 1128.781 542.063 1129.107 542.073 C 1137.079 542.388 1143.893 548.036 1145.674 555.806 L 1148.42 567.777 C 1149.095 570.75 1150.298 573.578 1151.971 576.127 L 1154.653 580.411 C 1148.822 583.473 1145.687 585.012 1138.725 586.432 L 1135.659 584.457 C 1138.706 581.851 1139.917 579.174 1141.042 576.152 C 1141.198 575.716 1141.552 575.287 1142.152 574.807 C 1143.42 573.766 1144.323 571.847 1144.499 569.79 C 1144.714 567.278 1144.184 565.417 1142.922 564.262 C 1142.543 563.914 1142.468 563.712 1142.454 563.619 L 1142.41 563.233 C 1142.234 561.693 1142.051 560.236 1141.761 559.339 C 1141.539 558.665 1140.911 558.21 1140.202 558.21 L 1137.135 558.21 C 1135.051 558.184 1134.156 558.008 1132.799 557.743 C 1132.42 557.662 1132.039 557.588 1131.657 557.522 C 1130.778 557.361 1129.936 557.943 1129.775 558.821 C 1129.615 559.7 1130.197 560.542 1131.075 560.703 C 1131.479 560.772 1131.839 560.848 1132.174 560.911 C 1133.596 561.195 1134.718 561.415 1137.116 561.441 L 1138.92 561.441 C 1139.04 562.179 1139.135 563.044 1139.205 563.606 L 1139.248 564.003 C 1139.362 564.969 1139.854 565.834 1140.744 566.653 C 1141.205 567.07 1141.4 568.118 1141.281 569.512 C 1141.168 570.863 1140.593 571.903 1140.114 572.296 C 1139.048 573.16 1138.378 574.031 1138.013 575.034 C 1136.825 578.228 1135.67 580.689 1131.954 583.225 C 1131.948 583.232 1131.941 583.232 1131.935 583.238 C 1130.985 583.878 1129.999 584.462 1128.981 584.986 C 1128.6 585.182 1128.313 585.523 1128.183 585.932 C 1128.054 586.341 1128.094 586.785 1128.293 587.164 C 1128.489 587.546 1128.829 587.833 1129.238 587.964 C 1129.646 588.094 1130.09 588.056 1130.471 587.859 C 1131.283 587.43 1132.08 586.976 1132.862 586.495 L 1142.993 593.014 C 1140.166 593.014 1137.471 593.596 1134.996 594.611 C 1134.729 594.43 1134.456 594.26 1134.177 594.1 L 1119.277 585.466 C 1121.145 582.664 1122.625 579.622 1123.676 576.422 C 1125.657 575.679 1127.468 573.256 1128.345 570.042 C 1128.668 568.831 1128.825 567.664 1128.825 566.603 C 1128.825 563.706 1127.695 561.491 1125.739 560.98 C 1125.513 560.916 1125.279 560.882 1125.044 560.879 C 1124.818 559.137 1124.382 557.534 1123.555 555.326 C 1123.546 555.265 1123.532 555.206 1123.511 555.148 C 1124.08 555.193 1124.981 555.42 1125.741 555.73 C 1126.296 555.962 1126.933 555.866 1127.396 555.481 C 1127.858 555.097 1128.069 554.487 1127.943 553.899 C 1126.779 548.623 1124.401 544.295 1121.057 541.101 C 1122.673 540.855 1124.224 540.836 1125.461 540.836 L 1125.459 540.836 Z  M 1093.81 547.98 C 1092.628 547.874 1091.484 548.426 1090.833 549.418 L 1088.238 553.35 C 1087.788 554.094 1088.006 555.061 1088.732 555.54 C 1089.458 556.018 1090.433 555.837 1090.939 555.13 L 1093.527 551.198 L 1096.051 552.429 C 1100.684 554.677 1105.765 555.849 1110.914 555.856 L 1115.041 555.856 C 1115.929 555.856 1116.656 555.129 1116.656 554.24 C 1116.656 553.352 1115.929 552.625 1115.041 552.625 L 1110.913 552.625 C 1106.255 552.62 1101.659 551.558 1097.471 549.52 L 1094.946 548.288 C 1094.59 548.117 1094.204 548.012 1093.81 547.98 Z  M 1087.967 588.067 C 1091.88 592.869 1096.998 596.245 1102.652 596.245 C 1108.307 596.245 1113.425 592.869 1117.338 588.066 L 1131.668 596.371 C 1125.891 600.108 1122.039 606.621 1122.039 614.017 C 1122.039 618.169 1123.251 622.063 1125.351 625.326 L 1065.494 625.326 C 1064.605 625.326 1063.878 624.599 1063.878 623.71 L 1063.878 612.275 C 1063.878 605.958 1067.274 600.057 1072.751 596.895 L 1087.967 588.067 Z  M 1143.042 596.245 C 1145.352 596.245 1147.549 596.682 1149.569 597.489 C 1152.344 598.588 1154.768 600.349 1156.661 602.595 C 1159.345 605.796 1160.815 609.84 1160.813 614.017 C 1160.813 623.824 1152.848 631.788 1143.042 631.788 C 1139.229 631.788 1135.722 630.596 1132.831 628.557 C 1131.525 627.641 1130.347 626.554 1129.329 625.326 C 1126.7 622.144 1125.265 618.144 1125.27 614.017 C 1125.27 607.231 1129.083 601.338 1134.673 598.346 C 1135.722 597.766 1136.857 597.312 1138.017 596.972 C 1139.602 596.504 1141.3 596.245 1143.042 596.245 Z  M 1089.828 596.245 C 1089.063 596.203 1088.373 596.702 1088.174 597.442 C 1087.974 598.181 1088.32 598.959 1089.002 599.307 L 1101.927 605.769 C 1102.384 605.996 1102.921 605.996 1103.378 605.769 L 1116.302 599.307 C 1117.097 598.908 1117.42 597.937 1117.023 597.136 C 1116.621 596.338 1115.65 596.016 1114.852 596.415 L 1102.652 602.519 L 1090.455 596.415 C 1090.259 596.32 1090.046 596.263 1089.829 596.245 L 1089.828 596.245 Z  M 1143.042 602.708 C 1142.153 602.708 1141.426 603.435 1141.426 604.323 L 1141.426 612.401 L 1133.348 612.401 C 1132.46 612.401 1131.733 613.128 1131.733 614.017 C 1131.733 614.905 1132.46 615.632 1133.348 615.632 L 1141.426 615.632 L 1141.426 623.71 C 1141.426 624.599 1142.153 625.326 1143.042 625.326 C 1143.93 625.326 1144.657 624.599 1144.657 623.71 L 1144.657 615.632 L 1152.735 615.632 C 1153.624 615.632 1154.351 614.905 1154.351 614.017 C 1154.351 613.128 1153.624 612.401 1152.735 612.401 L 1144.657 612.401 L 1144.657 604.323 C 1144.657 603.435 1143.93 602.708 1143.042 602.708 Z  M 1070.341 615.632 C 1069.452 615.632 1068.725 616.36 1068.725 617.248 L 1068.725 620.479 C 1068.725 621.368 1069.452 622.095 1070.341 622.095 C 1071.229 622.095 1071.956 621.368 1071.956 620.479 L 1071.956 617.248 C 1071.956 616.36 1071.229 615.632 1070.341 615.632 Z  M 1078.418 615.632 C 1077.53 615.632 1076.803 616.36 1076.803 617.248 L 1076.803 620.479 C 1076.803 621.368 1077.53 622.095 1078.418 622.095 C 1079.307 622.095 1080.034 621.368 1080.034 620.479 L 1080.034 617.248 C 1080.034 616.36 1079.307 615.632 1078.418 615.632 Z  M 1086.496 615.632 C 1085.608 615.632 1084.881 616.36 1084.881 617.248 L 1084.881 620.479 C 1084.881 621.368 1085.608 622.095 1086.496 622.095 C 1087.385 622.095 1088.112 621.368 1088.112 620.479 L 1088.112 617.248 C 1088.112 616.36 1087.385 615.632 1086.496 615.632 Z  M 1094.574 615.632 C 1093.686 615.632 1092.959 616.36 1092.959 617.248 L 1092.959 620.479 C 1092.959 621.368 1093.686 622.095 1094.574 622.095 C 1095.463 622.095 1096.19 621.368 1096.19 620.479 L 1096.19 617.248 C 1096.19 616.36 1095.463 615.632 1094.574 615.632 Z  M 1102.652 615.632 C 1101.764 615.632 1101.037 616.36 1101.037 617.248 L 1101.037 620.479 C 1101.037 621.368 1101.764 622.095 1102.652 622.095 C 1103.541 622.095 1104.268 621.368 1104.268 620.479 L 1104.268 617.248 C 1104.268 616.36 1103.541 615.632 1102.652 615.632 Z  M 1110.73 615.632 C 1109.842 615.632 1109.115 616.36 1109.115 617.248 L 1109.115 620.479 C 1109.115 621.368 1109.842 622.095 1110.73 622.095 C 1111.619 622.095 1112.346 621.368 1112.346 620.479 L 1112.346 617.248 C 1112.346 616.36 1111.619 615.632 1110.73 615.632 Z  M 1118.808 615.632 C 1117.919 615.632 1117.192 616.36 1117.192 617.248 L 1117.192 620.479 C 1117.192 621.368 1117.919 622.095 1118.808 622.095 C 1119.697 622.095 1120.424 621.368 1120.424 620.479 L 1120.424 617.248 C 1120.424 616.36 1119.697 615.632 1118.808 615.632 Z " fill="rgb(237,184,74)"/></svg>