<?xml version="1.0" encoding="UTF-8" standalone="no"?><!-- Generator: Gravit.io --><svg xmlns="http://www.w3.org/2000/svg" xmlns:xlink="http://www.w3.org/1999/xlink" style="isolation:isolate" viewBox="801.26 537.598 84.559 97.422" width="84.559pt" height="97.422pt"><path d=" M 852.209 630.475 L 878.218 630.475 L 878.218 630.475 L 878.218 630.475 L 878.218 594.65 L 852.209 594.65 L 852.209 630.475 Z  M 834.85 630.475 L 808.784 630.475 L 808.784 594.65 L 834.85 594.65 L 834.85 630.475 Z  M 852.743 590.067 L 881.961 590.067 L 881.961 573.567 L 881.961 573.567 L 852.743 573.567 L 852.743 590.067 L 852.743 590.067 Z  M 834.296 590.067 L 805.079 590.067 L 805.079 573.567 L 834.296 573.567 L 834.296 590.067 L 834.296 590.067 Z  M 847.702 557.183 C 848.924 553.249 855.57 547.826 860.458 545.763 C 863.934 544.312 865.729 544.999 869.014 549.2 C 871.993 552.982 872.184 554.929 869.816 557.947 C 868.364 559.818 865.08 562.224 861.337 564.287 C 862.75 563.408 863.858 562.568 864.354 561.88 C 865.805 559.971 867.18 555.999 865.423 553.669 C 864.545 552.523 862.75 551.416 859.045 552.829 C 853.966 554.738 848.962 562.071 846.442 566.273 C 846.442 563.141 846.709 560.391 847.702 557.183 L 847.702 557.183 L 847.702 557.183 L 847.702 557.183 Z  M 850.719 566.082 C 853.355 562.071 857.097 557.297 860.344 556.075 C 861.222 555.731 861.872 555.617 862.253 555.617 C 862.559 555.617 862.712 555.693 862.75 555.731 C 863.132 556.228 862.788 558.367 861.681 559.818 C 860.879 560.926 856.066 563.561 850.719 566.082 L 850.719 566.082 L 850.719 566.082 L 850.719 566.082 Z  M 817.492 557.87 C 814.818 554.089 814.894 550.499 817.797 546.489 C 821.846 540.913 825.092 541.371 827.765 542.593 C 832.349 544.656 838.421 550.461 839.873 555.502 C 840.771 558.616 841.196 561.848 841.133 565.089 C 838.459 560.811 833.876 554.586 829.255 552.867 C 825.55 551.454 823.717 552.561 822.877 553.707 C 821.12 556.037 822.495 560.009 823.946 561.919 C 824.977 563.294 828.338 565.241 831.89 567.075 C 825.856 564.974 819.554 560.735 817.492 557.87 L 817.492 557.87 L 817.492 557.87 L 817.492 557.87 Z  M 837.657 566.082 C 832.31 563.561 827.498 560.926 826.658 559.818 C 825.55 558.367 825.207 556.266 825.588 555.731 C 825.627 555.655 825.818 555.617 826.085 555.617 C 826.467 555.617 827.116 555.731 827.995 556.075 C 831.279 557.297 835.022 562.071 837.657 566.082 L 837.657 566.082 L 837.657 566.082 L 837.657 566.082 Z  M 885.78 569.748 L 859.847 569.748 C 865.576 567.189 871 563.37 873.177 560.544 C 877.607 554.853 875.392 550.499 872.336 546.603 C 869.357 542.822 865.614 539.041 858.854 541.867 C 853.927 543.93 846.403 549.468 844.074 554.929 C 844.036 554.738 843.959 554.509 843.921 554.318 C 842.088 547.902 835.022 541.256 829.522 538.736 C 823.908 536.177 818.828 537.934 814.436 544.006 C 810.502 549.43 810.388 555.082 814.092 560.276 C 816.384 563.446 821.693 567.189 827.345 569.71 L 801.26 569.71 L 801.26 594.23 L 804.239 594.23 L 804.239 635.02 L 882.839 635.02 L 882.839 594.268 L 885.818 594.268 L 885.818 569.748 L 885.78 569.748 L 885.78 569.748 L 885.78 569.748 Z " fill-rule="evenodd" fill="rgb(237,184,74)"/></svg>